<svg width="1440" height="706" viewBox="0 0 1440 706" fill="none" xmlns="http://www.w3.org/2000/svg">
<path d="M488.772 472.429C281.838 398.104 291.158 238.122 -52.8359 280.296L-120.693 695.193L1422.4 903.732C1432.33 849.156 1460.02 688.457 1491.34 482.267C1394.73 591.23 695.707 546.754 488.772 472.429Z" fill="#CBDAEC"/>
<path d="M550.04 598.78C309.334 547.568 58.3859 602.95 -37 637.042V730L1505.7 720.434C1506.68 708.171 1508.06 672.116 1505.7 626.005C1428.64 653.23 850.923 662.796 550.04 598.78Z" fill="white"/>
<path d="M1211.5 469L1243.11 532H1179.89L1211.5 469Z" fill="white"/>
<rect x="1180" y="532" width="63" height="96" fill="white"/>
<path d="M1156 614.867L1176 596V628.145L1156 654V614.867Z" fill="white"/>
<path d="M1267 614.867L1247 596V628.145L1267 654V614.867Z" fill="white"/>
<rect x="1209" y="597" width="5" height="56" fill="white"/>
<circle cx="1211.5" cy="571.5" r="14.5" fill="#D9E5F3"/>
<circle cx="1316.5" cy="216.5" r="90.5" fill="white"/>
<circle cx="1" cy="179" r="179" fill="white"/>
</svg>
